<?xml version="1.0" encoding="utf-8"?>
<!-- Generator: Adobe Illustrator 18.0.0, SVG Export Plug-In . SVG Version: 6.00 Build 0)  -->
<!DOCTYPE svg PUBLIC "-//W3C//DTD SVG 1.1//EN" "http://www.w3.org/Graphics/SVG/1.1/DTD/svg11.dtd">
<svg version="1.1" id="Layer_1" focusable="false" xmlns="http://www.w3.org/2000/svg" xmlns:xlink="http://www.w3.org/1999/xlink"
	 x="0px" y="0px" viewBox="0 0 7200 6800" enable-background="new 0 0 7200 6800" xml:space="preserve">
<path fill="#777676" d="M4184.4,5525h318.8c88,0,159.4-71.4,159.4-159.4V2496.9c0-88-71.4-159.4-159.4-159.4h-318.8
	c-88,0-159.4,71.4-159.4,159.4v2868.8C4025,5453.6,4096.4,5525,4184.4,5525z M6362.5,1062.5H5268l-451.6-753
	C4701.2,117.4,4493.5-0.1,4269.5,0h-1339c-223.9,0-431.4,117.5-546.7,309.5l-451.8,753H837.5c-117.4,0-212.5,95.1-212.5,212.5v212.5
	c0,117.4,95.1,212.5,212.5,212.5H1050v4462.5c0,352.1,285.4,637.5,637.5,637.5l0,0h3825c352.1,0,637.5-285.4,637.5-637.5l0,0V1700
	h212.5c117.4,0,212.5-95.1,212.5-212.5V1275C6575,1157.6,6479.9,1062.5,6362.5,1062.5z M2907.3,676.1c14.4-24,40.5-38.7,68.5-38.6
	h1248.4c28,0,54,14.6,68.4,38.6l231.9,386.4h-1849L2907.3,676.1z M5512.5,6162.5h-3825V1700h3825V6162.5z M2696.9,5525h318.8
	c88,0,159.4-71.4,159.4-159.4V2496.9c0-88-71.4-159.4-159.4-159.4h-318.8c-88,0-159.4,71.4-159.4,159.4v2868.8
	C2537.5,5453.6,2608.9,5525,2696.9,5525z"/>
</svg>
